<svg xmlns="http://www.w3.org/2000/svg" width="48" height="48" viewBox="0 0 48 48">
  <path 
    transform="translate(0.047)" 
    style="fill: #fbb200;fill-rule: evenodd;"
    d="M26.682,20.887l-5.18,5.1a2.465,2.465,0,0,0-.021,3.524l1.187,1.168,6.98-6.87,2.967,2.919-5.18,5.1a2.464,2.464,0,0,0-.021,3.524l4.694,4.619-3.4,3.344L17.681,32.457a5.749,5.749,0,0,1,0-8.221l6.2-6.1Z" />
  <path
    transform="translate(0.047)"
    style="fill: #003c90;fill-rule: evenodd;"
    d="M23.971,0L5.425,18.253a8.052,8.052,0,0,0,0,11.515h0L23.947,48l2.674-2.632L11.932,30.911a5.748,5.748,0,0,1,0-8.221h0L23.952,10.861l11.989,11.8a5.76,5.76,0,0,1,0,8.238l-4.6,4.53,2.678,2.635,8.447-8.314a8.068,8.068,0,0,0,0-11.537L29.473,5.427l0.006-.005Z" />
</svg>
